<?xml version="1.0" encoding="UTF-8"?>
<svg width="700pt" height="700pt" version="1.1" viewBox="0 0 700 700" xmlns="http://www.w3.org/2000/svg">
 <g>
  <path d="m361.76 268.63v-34.328c10.918 1.625 20.328 5.375 25.59 10.414 2.2969 2.1836 5.2656 3.3047 8.1758 3.3047 3.0781 0 6.1055-1.2305 8.5117-3.6406 4.4805-4.7031 4.3672-12.152-0.33594-16.688-9.5742-9.1836-24.641-15.23-41.941-17.137v-16.52c0-6.4961-5.2656-11.816-11.816-11.816-6.4414 0-11.816 5.3203-11.816 11.816v16.465c-30.633 3.3047-52.586 19.488-52.586 40.266 0 20.777 22.008 36.902 52.586 40.207v34.328c-10.809-1.625-20.219-5.375-25.594-10.473-4.7031-4.4805-12.262-4.3125-16.742 0.39062-4.4805 4.707-4.2578 12.211 0.44531 16.688 9.5234 9.1289 24.699 15.234 41.891 17.137v15.398c0 6.5508 5.375 11.762 11.816 11.762 6.5508 0 11.816-5.2656 11.816-11.762v-15.398c30.742-3.3047 52.586-19.488 52.586-40.207-0.003906-20.719-21.844-36.902-52.586-40.207zm-23.633-1.457c-17.809-2.6328-29.121-10.754-29.121-16.406 0-5.7109 11.258-13.887 29.121-16.465zm23.633 58.129v-32.871c17.809 2.5742 29.008 10.695 29.008 16.406 0 5.7109-11.203 13.832-29.008 16.465z"/>
  <path d="m349.95 90.383c-104.55 0-189.56 85.008-189.56 189.62s85.008 189.67 189.56 189.67c104.55 0 189.68-85.121 189.68-189.67 0-104.61-85.121-189.62-189.67-189.62zm0 355.66c-91.559 0-166.04-74.48-166.04-166.04s74.48-165.98 166.04-165.98c91.559 0 166.04 74.426 166.04 165.98s-74.48 166.04-166.04 166.04z"/>
 </g>
</svg>
